<svg width="25" height="25" viewBox="0 0 25 25" fill="none" xmlns="http://www.w3.org/2000/svg">
<path d="M10.1436 7.30664H19.7856" stroke="#263238" stroke-width="1.5" stroke-linecap="square"/>
<path fill-rule="evenodd" clip-rule="evenodd" d="M10.1588 7.24665C10.1588 5.80458 8.98108 4.63525 7.52863 4.63525C6.07618 4.63525 4.89844 5.80458 4.89844 7.24665C4.89844 8.68872 6.07618 9.85804 7.52863 9.85804C8.98108 9.85804 10.1588 8.68872 10.1588 7.24665Z" stroke="#263238" stroke-width="1.5" stroke-linecap="square"/>
<path d="M15.6533 16.9194H6.01128" stroke="#263238" stroke-width="1.5" stroke-linecap="square"/>
<path fill-rule="evenodd" clip-rule="evenodd" d="M15.6381 16.859C15.6381 15.4169 16.8158 14.2476 18.2682 14.2476C19.7207 14.2476 20.8984 15.4169 20.8984 16.859C20.8984 18.301 19.7207 19.4703 18.2682 19.4703C16.8158 19.4703 15.6381 18.301 15.6381 16.859Z" stroke="#263238" stroke-width="1.5" stroke-linecap="square"/>
</svg>
